<svg width="1000" height="1000" viewBox="0 0 1000 1000" fill="none" xmlns="http://www.w3.org/2000/svg">
<circle cx="500" cy="500" r="500" fill="white"/>
<path d="M630.734 266.184C605.118 266.184 592.31 253.241 592.31 227.355V203.492C592.31 178.145 605.118 165.472 630.734 165.472H654.193C678.731 165.472 691 178.145 691 203.492V227.355C691 253.241 678.731 266.184 654.193 266.184H630.734ZM552.267 904.435C540.673 904.435 532.179 901.469 526.786 895.537C521.663 889.604 519.101 881.245 519.101 870.46C519.101 859.404 521.932 850.91 527.595 844.978C533.257 839.316 541.482 836.484 552.267 836.484C574.109 836.484 588.67 832.709 595.95 825.159C603.5 817.879 607.275 803.318 607.275 781.477V593.399C607.275 570.749 618.6 559.424 641.25 559.424C663.901 559.424 675.226 570.749 675.226 593.399V781.477C675.226 823.002 665.114 853.876 644.891 874.1C624.937 894.323 594.063 904.435 552.267 904.435Z" fill="black"/>
<path d="M333.975 728.491C311.325 728.491 300 717.166 300 694.516V192.975C300 170.325 311.325 159 333.975 159C356.626 159 367.951 170.325 367.951 192.975V357.189C396.533 325.641 438.598 318.36 494.145 318.36H516.795C570.724 318.36 610.632 331.303 636.518 357.189C662.404 383.075 675.346 422.983 675.346 476.912V694.516C675.346 717.166 664.021 728.491 641.371 728.491C618.721 728.491 607.396 717.166 607.396 694.516V476.912C607.396 441.589 600.924 417.725 587.981 405.321C575.308 392.648 551.579 386.311 516.795 386.311H494.145C461.787 386.311 433.609 390.086 409.611 397.636C385.612 404.917 371.726 416.511 367.951 432.421V694.516C367.951 717.166 356.626 728.491 333.975 728.491Z" fill="black"/>
</svg>
